<svg width="25" height="24" viewBox="0 0 25 24" fill="none" xmlns="http://www.w3.org/2000/svg">
<g id="outline">
<path id="Vector" d="M20.0787 6.75H4.92122C4.73665 6.75 4.55856 6.81806 4.42103 6.94115C4.2835 7.06425 4.19619 7.23373 4.17581 7.41718L2.84248 19.4172C2.83083 19.522 2.84143 19.6281 2.87357 19.7286C2.90572 19.829 2.9587 19.9216 3.02904 20.0002C3.09939 20.0788 3.18553 20.1417 3.28182 20.1847C3.37812 20.2278 3.48241 20.25 3.58789 20.25H21.412C21.5175 20.25 21.6218 20.2278 21.7181 20.1847C21.8144 20.1417 21.9005 20.0788 21.9708 20.0002C22.0412 19.9216 22.0942 19.829 22.1263 19.7286C22.1585 19.6281 22.1691 19.522 22.1574 19.4172L20.8241 7.41718C20.8037 7.23373 20.7164 7.06425 20.5789 6.94115C20.4413 6.81806 20.2632 6.75 20.0787 6.75Z" stroke="#1B4B66" stroke-width="2" stroke-linecap="round" stroke-linejoin="round"/>
<path id="Vector_2" d="M8.75 5.75C8.75 4.75544 9.14509 3.80161 9.84835 3.09835C10.5516 2.39509 11.5054 2 12.5 2C13.4946 2 14.4484 2.39509 15.1517 3.09835C15.8549 3.80161 16.25 4.75544 16.25 5.75" stroke="#1B4B66" stroke-width="2" stroke-linecap="round" stroke-linejoin="round"/>
</g>
</svg>
