<svg width="200" height="38" viewBox="0 0 200 38" fill="none" xmlns="http://www.w3.org/2000/svg">
<g id="logos">
<g id="fb logo">
<circle id="Ellipse 17" cx="19" cy="19" r="19" fill="#639599"/>
<path id="XMLID 835" d="M12.5087 20.7084H15.3488V32.4004C15.3488 32.6312 15.5358 32.8183 15.7667 32.8183H20.5821C20.8129 32.8183 21 32.6312 21 32.4004V20.7634H24.2648C24.4771 20.7634 24.6557 20.6041 24.68 20.3933L25.1758 16.0889C25.1895 15.9704 25.1519 15.8518 25.0727 15.763C24.9934 15.6741 24.8799 15.6232 24.7608 15.6232H21.0001V12.9249C21.0001 12.1116 21.4381 11.6991 22.3019 11.6991C22.425 11.6991 24.7608 11.6991 24.7608 11.6991C24.9916 11.6991 25.1787 11.512 25.1787 11.2812V7.33016C25.1787 7.09932 24.9916 6.91227 24.7608 6.91227H21.3721C21.3482 6.9111 21.2951 6.90918 21.2169 6.90918C20.629 6.90918 18.5852 7.0246 16.9708 8.50978C15.1821 10.1556 15.4308 12.1262 15.4902 12.4678V15.6231H12.5087C12.2779 15.6231 12.0908 15.8101 12.0908 16.041V20.2904C12.0908 20.5212 12.2779 20.7084 12.5087 20.7084Z" fill="#1B4B66"/>
</g>
<g id="insta logo">
<circle id="Ellipse 17_2" cx="73" cy="19" r="19" fill="#639599"/>
<path id="Subtract" fill-rule="evenodd" clip-rule="evenodd" d="M68.3707 8.70404C69.5683 8.6494 69.9505 8.63647 72.9997 8.63647C76.0489 8.63647 76.4312 8.6494 77.6287 8.70404C78.8237 8.75859 79.6398 8.94835 80.354 9.22591C81.0923 9.51283 81.7184 9.89673 82.3426 10.5209C82.9667 11.145 83.3506 11.7712 83.6376 12.5095C83.9151 13.2236 84.1049 14.0397 84.1594 15.2348C84.2141 16.4323 84.227 16.8146 84.227 19.8638C84.227 22.9129 84.2141 23.2953 84.1594 24.4927C84.1049 25.6878 83.9151 26.5039 83.6376 27.2181C83.3506 27.9564 82.9667 28.5825 82.3426 29.2066C81.7184 29.8308 81.0923 30.2147 80.354 30.5016C79.6398 30.7792 78.8237 30.969 77.6287 31.0235C76.4312 31.0781 76.0489 31.091 72.9997 31.091C69.9505 31.091 69.5683 31.0781 68.3707 31.0235C67.1757 30.969 66.3596 30.7792 65.6454 30.5016C64.9071 30.2147 64.281 29.8308 63.6568 29.2066C63.0327 28.5825 62.6488 27.9563 62.3619 27.2181C62.0843 26.5039 61.8945 25.6878 61.84 24.4927C61.7853 23.2953 61.7725 22.9129 61.7725 19.8638C61.7725 16.8146 61.7853 16.4323 61.84 15.2348C61.8945 14.0397 62.0843 13.2236 62.3619 12.5095C62.6488 11.7712 63.0327 11.145 63.6568 10.5209C64.281 9.89673 64.9071 9.51283 65.6454 9.22591C66.3596 8.94835 67.1757 8.75859 68.3707 8.70404ZM78.9929 15.2179C79.7369 15.2179 80.3401 14.6147 80.3401 13.8706C80.3401 13.1265 79.7369 12.5234 78.9929 12.5234C78.2488 12.5234 77.6456 13.1265 77.6456 13.8706C77.6456 14.6147 78.2488 15.2179 78.9929 15.2179ZM78.2392 19.8634C78.2392 22.7571 75.8934 25.1028 72.9998 25.1028C70.1061 25.1028 67.7604 22.7571 67.7604 19.8634C67.7604 16.9698 70.1061 14.624 72.9998 14.624C75.8934 14.624 78.2392 16.9698 78.2392 19.8634ZM76.4543 19.8637C76.4543 21.7716 74.9076 23.3183 72.9997 23.3183C71.0918 23.3183 69.5452 21.7716 69.5452 19.8637C69.5452 17.9558 71.0918 16.4092 72.9997 16.4092C74.9076 16.4092 76.4543 17.9558 76.4543 19.8637Z" fill="#1B4B66"/>
</g>
<g id="twitter ">
<circle id="Ellipse 17_3" cx="127" cy="19" r="19" fill="#639599"/>
<g id="twitter-seeklogo.com 1">
<g id="Group">
<path id="Vector" d="M139.091 12.6899C138.201 13.0845 137.245 13.3512 136.242 13.4711C137.266 12.8571 138.052 11.8848 138.423 10.7264C137.464 11.2948 136.403 11.7077 135.273 11.9303C134.367 10.9661 133.078 10.3635 131.651 10.3635C128.911 10.3635 126.69 12.5848 126.69 15.3246C126.69 15.7134 126.734 16.0921 126.818 16.4552C122.695 16.2483 119.04 14.2732 116.593 11.2717C116.166 12.0044 115.921 12.8566 115.921 13.7658C115.921 15.487 116.797 17.0055 118.128 17.8952C117.315 17.8695 116.55 17.6463 115.881 17.2747C115.88 17.2954 115.88 17.3162 115.88 17.3371C115.88 19.7408 117.591 21.746 119.86 22.2017C119.444 22.3151 119.006 22.3757 118.553 22.3757C118.233 22.3757 117.923 22.3447 117.62 22.2867C118.251 24.2578 120.083 25.6921 122.254 25.7322C120.556 27.0628 118.417 27.8559 116.093 27.8559C115.692 27.8559 115.297 27.8325 114.909 27.7867C117.105 29.1943 119.713 30.0156 122.514 30.0156C131.64 30.0156 136.63 22.4558 136.63 15.8999C136.63 15.6848 136.625 15.4708 136.615 15.2581C137.585 14.5586 138.426 13.6848 139.091 12.6899Z" fill="#1B4B66"/>
</g>
</g>
</g>
<g id="youtube">
<circle id="Ellipse 17_4" cx="181" cy="19" r="19" fill="#639599"/>
<g id="Group 131">
<path id="Subtract_2" fill-rule="evenodd" clip-rule="evenodd" d="M191.992 11.6859C192.375 12.0689 192.651 12.5455 192.793 13.0683C193.608 16.3473 193.42 21.5259 192.809 24.9315C192.667 25.4543 192.391 25.9309 192.008 26.3139C191.625 26.6968 191.148 26.9728 190.625 27.1143C188.71 27.6363 181.003 27.6363 181.003 27.6363C181.003 27.6363 173.296 27.6363 171.381 27.1143C170.858 26.9728 170.381 26.6968 169.998 26.3139C169.615 25.9309 169.339 25.4543 169.198 24.9315C168.378 21.6667 168.602 16.4849 169.182 13.0841C169.323 12.5613 169.599 12.0847 169.982 11.7017C170.366 11.3188 170.843 11.0428 171.366 10.9013C173.28 10.3793 180.987 10.3635 180.987 10.3635C180.987 10.3635 188.694 10.3635 190.609 10.8855C191.132 11.027 191.609 11.3029 191.992 11.6859ZM184.701 18.9999L178.532 22.7012V15.2986L184.701 18.9999Z" fill="#1B4B66"/>
</g>
</g>
</g>
</svg>
